<svg width="17" height="17" viewBox="0 0 17 17" fill="none" xmlns="http://www.w3.org/2000/svg">
<path d="M10.0035 8.50018L16.6885 1.81486C17.1038 1.39986 17.1038 0.726511 16.6885 0.311514C16.2732 -0.103838 15.6005 -0.103838 15.1852 0.311514L8.50018 6.99683L1.81478 0.311514C1.39945 -0.103838 0.726835 -0.103838 0.311501 0.311514C-0.103834 0.726511 -0.103834 1.39986 0.311501 1.81486L6.99689 8.50018L0.311501 15.1855C-0.103834 15.6005 -0.103834 16.2738 0.311501 16.6888C0.519168 16.8962 0.791332 17 1.06314 17C1.33495 17 1.60712 16.8962 1.81478 16.6885L8.50018 10.0032L15.1852 16.6885C15.3929 16.8962 15.665 17 15.9369 17C16.2087 17 16.4808 16.8962 16.6885 16.6885C17.1038 16.2735 17.1038 15.6001 16.6885 15.1851L10.0035 8.50018Z" fill="#9D9D9D"/>
</svg>
