<svg width="16" height="16" viewBox="0 0 16 16" fill="none" xmlns="http://www.w3.org/2000/svg">
<path id="Path" d="M9.41502 8.00017L15.7068 1.7081C16.0977 1.31752 16.0977 0.683775 15.7068 0.293189C15.3159 -0.0977298 14.6829 -0.0977298 14.292 0.293189L8.00017 6.58525L1.70803 0.293189C1.31713 -0.0977298 0.68408 -0.0977298 0.293177 0.293189C-0.0977257 0.683775 -0.0977257 1.31752 0.293177 1.7081L6.58531 8.00017L0.293177 14.2922C-0.0977257 14.6828 -0.0977257 15.3166 0.293177 15.7071C0.488629 15.9023 0.744783 16 1.0006 16C1.25643 16 1.51258 15.9023 1.70803 15.7068L8.00017 9.41475L14.292 15.7068C14.4874 15.9023 14.7436 16 14.9994 16C15.2552 16 15.5114 15.9023 15.7068 15.7068C16.0977 15.3162 16.0977 14.6825 15.7068 14.2919L9.41502 8.00017Z" fill="#241F3A"/>
</svg>
